<svg xmlns="http://www.w3.org/2000/svg" width="512" height="512" viewBox="0 0 189.591 189.591"><path d="M159.398 157.296c-.091-.117-.158-.238-.263-.353-28.218-31.046 5.694-123.919-47.475-136.609.432-5.023.068-10.267-2.191-14.698-2.219-4.352-6.705-6.174-11.361-5.5-7.247 1.049-14.666 9.106-14.43 16.554.046 1.446.449 2.803 1.046 4.055-18.217 5.166-30.336 20.673-33.283 41.988-4.156 30.062 7.883 70.954-21.67 90.726-1.681 1.125-1.813 3.366-.989 4.908-.037 2.151 1.359 4.328 4.213 4.454 14.477.644 28.978.71 43.475.778-.067.174-.151.381-.206.531-1.321 3.606-1.226 7.869-.117 11.512 2.083 6.844 8.52 11.734 15.289 13.373 6.669 1.615 13.958-.128 18.125-5.816 4.036-5.511 3.608-12.626 1.789-19.151 6.832.13 13.664.226 20.494.401 6.961.181 14.518 1.388 21.579.636 1.93 1.042 4.066.38 5.482-1.081 3.245-1.17 2.975-5.021.493-6.708z" fill="#bfbbbf"/></svg>